<svg width="1024" height="1024" viewBox="0 0 1024 1024" fill="none" xmlns="http://www.w3.org/2000/svg">
<g clip-path="url(#clip0)">
<path d="M259.664 1020.38C220.057 1019.93 180.822 1012.67 143.681 998.902C116.56 988.877 92.0216 972.917 71.8607 952.189C51.0772 932.069 35.0939 907.524 25.098 880.379C11.3418 843.24 4.08779 804.008 3.65427 764.406C0.612392 698.569 0 678.822 0 512C0 345.178 0.672627 325.501 3.62416 259.614C4.11028 220.027 11.3732 180.816 25.098 143.681C35.1426 116.555 51.1032 92.0073 71.8205 71.8205C91.9565 51.0557 116.506 35.0873 143.651 25.098C180.791 11.3304 220.027 4.06617 259.634 3.62416C325.491 0.612392 345.269 0 512 0C678.731 0 698.498 0.672627 764.386 3.62416C803.983 4.10685 843.205 11.3699 880.349 25.098C907.482 35.1005 932.025 51.0634 952.169 71.8105C972.923 91.9616 988.892 116.511 998.902 143.651C1012.67 180.791 1019.94 220.026 1020.39 259.634C1023.4 325.522 1024.01 345.249 1024.01 512.02C1024.01 678.791 1023.4 698.519 1020.39 764.406C1019.91 804.008 1012.64 843.234 998.902 880.379C988.509 907.316 972.591 931.778 952.173 952.191C931.755 972.604 907.288 988.516 880.349 998.902C843.209 1012.67 803.974 1019.94 764.366 1020.39C698.539 1023.4 678.751 1024.01 511.98 1024.01C345.208 1024.01 325.481 1023.43 259.654 1020.39" fill="url(#paint0_radial)"/>
<path d="M259.664 1020.38C220.057 1019.93 180.822 1012.67 143.681 998.902C116.56 988.877 92.0216 972.917 71.8607 952.189C51.0772 932.069 35.0939 907.524 25.098 880.379C11.3418 843.24 4.08779 804.008 3.65427 764.406C0.612392 698.569 0 678.822 0 512C0 345.178 0.672627 325.501 3.62416 259.614C4.11028 220.027 11.3732 180.816 25.098 143.681C35.1426 116.555 51.1032 92.0073 71.8205 71.8205C91.9565 51.0557 116.506 35.0873 143.651 25.098C180.791 11.3304 220.027 4.06617 259.634 3.62416C325.491 0.612392 345.269 0 512 0C678.731 0 698.498 0.672627 764.386 3.62416C803.983 4.10685 843.205 11.3699 880.349 25.098C907.482 35.1005 932.025 51.0634 952.169 71.8105C972.923 91.9616 988.892 116.511 998.902 143.651C1012.67 180.791 1019.94 220.026 1020.39 259.634C1023.4 325.522 1024.01 345.249 1024.01 512.02C1024.01 678.791 1023.4 698.519 1020.39 764.406C1019.91 804.008 1012.64 843.234 998.902 880.379C988.509 907.316 972.591 931.778 952.173 952.191C931.755 972.604 907.288 988.516 880.349 998.902C843.209 1012.67 803.974 1019.94 764.366 1020.39C698.539 1023.4 678.751 1024.01 511.98 1024.01C345.208 1024.01 325.481 1023.43 259.654 1020.39" fill="url(#paint1_radial)"/>
<path fill-rule="evenodd" clip-rule="evenodd" d="M150 158C105.817 158 70 193.817 70 238V311H211V713H63V786C63 830.183 98.8172 866 143 866H284C328.183 866 364 830.183 364 786V713V311H874C918.183 311 954 275.183 954 231V158H150ZM435 713V350H508C552.183 350 588 385.817 588 430V436H809V509C809 553.183 773.183 589 729 589H588V713H954V786C954 830.183 918.183 866 874 866H514C469.817 866 434 830.183 434 786V713H435Z" fill="white"/>
</g>
<defs>
<radialGradient id="paint0_radial" cx="0" cy="0" r="1" gradientUnits="userSpaceOnUse" gradientTransform="translate(66.2688 1001.57) scale(1300.1)">
<stop offset="0.09" stop-color="#21FAED"/>
<stop offset="0.78" stop-color="#2D53D8"/>
</radialGradient>
<radialGradient id="paint1_radial" cx="0" cy="0" r="1" gradientUnits="userSpaceOnUse" gradientTransform="translate(709.291 968.684) scale(1144.1)">
<stop offset="0.166667" stop-color="#8C3AAA"/>
<stop offset="0.64" stop-color="#8C3AAA" stop-opacity="0"/>
<stop offset="0.973958" stop-color="#8C3AAA"/>
</radialGradient>
<clipPath id="clip0">
<rect width="1024" height="1024" fill="white"/>
</clipPath>
</defs>
</svg>
